<svg id="Capa_2_copia" data-name="Capa 2 copia" xmlns="http://www.w3.org/2000/svg" xmlns:xlink="http://www.w3.org/1999/xlink" viewBox="0 0 226.76079 207.1451"><defs><style>.cls-1,.cls-10,.cls-2,.cls-3,.cls-4,.cls-5,.cls-6,.cls-7,.cls-8,.cls-9{fill-rule:evenodd;}.cls-1{fill:url(#GradientFill_1);}.cls-2{fill:url(#GradientFill_1-2);}.cls-3{fill:url(#GradientFill_1-3);}.cls-4{fill:url(#GradientFill_1-4);}.cls-5{fill:url(#GradientFill_1-5);}.cls-6{fill:url(#GradientFill_1-6);}.cls-7{fill:url(#GradientFill_1-7);}.cls-8{fill:url(#GradientFill_1-8);}.cls-9{fill:url(#GradientFill_1-9);}.cls-10{fill:url(#GradientFill_1-10);}.cls-11{fill:#fff;}</style><radialGradient id="GradientFill_1" cx="113.38037" cy="117.41405" r="71.90931" gradientUnits="userSpaceOnUse"><stop offset="0" stop-color="#f7de75"/><stop offset="0.5" stop-color="#eec336"/><stop offset="1" stop-color="#e2b51b"/></radialGradient><radialGradient id="GradientFill_1-2" cx="172.18636" cy="67.80165" r="28.0712" xlink:href="#GradientFill_1"/><radialGradient id="GradientFill_1-3" cx="150.90236" cy="72.7594" r="20.09104" xlink:href="#GradientFill_1"/><radialGradient id="GradientFill_1-4" cx="194.81104" cy="65.3913" r="36.06689" xlink:href="#GradientFill_1"/><radialGradient id="GradientFill_1-5" cx="134.00546" cy="59.8147" r="26.66958" xlink:href="#GradientFill_1"/><radialGradient id="GradientFill_1-6" cx="54.57634" cy="67.80165" r="28.07005" xlink:href="#GradientFill_1"/><radialGradient id="GradientFill_1-7" cx="75.85711" cy="72.7594" r="20.09035" xlink:href="#GradientFill_1"/><radialGradient id="GradientFill_1-8" cx="31.94729" cy="65.39085" r="36.06604" xlink:href="#GradientFill_1"/><radialGradient id="GradientFill_1-9" cx="113.38067" cy="48.7361" r="33.26026" xlink:href="#GradientFill_1"/><radialGradient id="GradientFill_1-10" cx="92.75513" cy="59.8147" r="26.66855" xlink:href="#GradientFill_1"/></defs><title>LOGO RCR</title><path class="cls-1" d="M15.16232,135.5428c27.5641-16.4342,61.5016-26.1414,98.2128-26.1414h0c36.7198,0,70.6629,9.7072,98.2233,26.1428a150.14538,150.14538,0,0,0-98.2233-36.2603h0A150.14423,150.14423,0,0,0,15.16232,135.5428Z"/><path class="cls-2" d="M175.26892,33.0845l-19.5131,67.1449q4.56509,1.32435,9.02,2.9288l23.6758-65.7924a1.07545,1.07545,0,0,0-.7984-1.285h0a2.78273,2.78273,0,0,0-2.0507.3175h0a5.425,5.425,0,0,1-4.1305.0269h0c-3.7673-1.2228-3.0721-3.3512-4.7991-3.9135h0a1.35065,1.35065,0,0,0-.4138-0.0666h0a1.00412,1.00412,0,0,0-.9902.6394h0Z"/><path class="cls-3" d="M150.10382,46.9462h-0.0156a0.92743,0.92743,0,0,0-.9519.6775h0l-8.8324,48.9823c3.1156,0.5568,6.1904,1.2228,9.2393,1.9666h0l11.8562-48.3401a0.9729,0.9729,0,0,0-.8376-1.0852h0a2.635,2.635,0,0,0-1.8805.5154h0a4.89744,4.89744,0,0,1-3.6513.3874h0c-3.5088-.7438-3.0823-2.7351-4.6887-3.0775h0A1.18018,1.18018,0,0,0,150.10382,46.9462Z"/><path class="cls-4" d="M204.77872,22.0462l-34.042,83.405q4.4211,1.80555,8.7043,3.8702h0l39.2026-81.1017a1.17617,1.17617,0,0,0-.7215-1.486h0a2.94572,2.94572,0,0,0-2.1979.0878h0a5.95475,5.95475,0,0,1-4.5709-.4303h0c-3.9651-1.7631-2.9724-3.9931-4.7849-4.8026h0a1.4518,1.4518,0,0,0-.5892-0.1274h0a1.05872,1.05872,0,0,0-1.0005.585h0Z"/><path class="cls-5" d="M129.65412,24.8687L124.52,94.6333q4.7595,0.3468,9.4336.9866l9.4836-69.3013a1.0761,1.0761,0,0,0-1.0494-1.0938h0a3.07622,3.07622,0,0,0-2.0839.8329h0a5.45018,5.45018,0,0,1-3.8924.7934h0c-3.9383-.4163-3.7062-2.6449-5.5082-2.8341h0c-0.0475-.0044-0.0941-0.0075-0.1402-0.0075h0a1.05449,1.05449,0,0,0-1.109.8592h0Z"/><path class="cls-6" d="M50.08652,32.5117c-1.7218.5623-1.0293,2.6907-4.7966,3.9135h0a5.4312,5.4312,0,0,1-4.1328-.0269h0a2.7833,2.7833,0,0,0-2.0507-.3175h0a1.076,1.076,0,0,0-.794,1.285h0l23.6717,65.7924q4.45215-1.6038,9.022-2.9288h0L51.49032,33.0845a1.0005,1.0005,0,0,0-.9883-0.6394h0a1.34131,1.34131,0,0,0-.4155.0666h0Z"/><path class="cls-7" d="M76.66942,46.9462h-0.0155a1.20037,1.20037,0,0,0-.239.0264h0c-1.6036.3424-1.1764,2.3337-4.6825,3.0775h0a4.90216,4.90216,0,0,1-3.654-.3874h0a2.63294,2.63294,0,0,0-1.8789-.5154h0a0.97558,0.97558,0,0,0-.8396,1.0852h0l11.8588,48.3401c3.0465-.7438,6.1212-1.4098,9.2366-1.9666l-8.8289-48.9823A0.93231,0.93231,0,0,0,76.66942,46.9462Z"/><path class="cls-8" d="M20.39352,21.5886c-1.8156.8095-.8198,3.0395-4.7844,4.8026h0a5.95751,5.95751,0,0,1-4.572.4303h0a2.9394,2.9394,0,0,0-2.1953-.0878h0a1.17349,1.17349,0,0,0-.7236,1.486h0l39.2021,81.1017q4.27545-2.068,8.6988-3.8702h0l-34.0362-83.405a1.0615,1.0615,0,0,0-1.0002-.5859h0a1.45112,1.45112,0,0,0-.5892.1283h0Z"/><path class="cls-9" d="M113.38262,5.6093c-4.3395,0-4.3395-2.442-6.3263-2.442a1.178,1.178,0,0,0-1.2642,1.0669h0l2.8264,90.0707c1.5822-.0466,3.1672-0.0812,4.7641-0.0812h0c1.5889,0,3.1758.0346,4.7581,0.0812h0l2.8285-90.0707a1.177,1.177,0,0,0-1.266-1.0669c-1.985,0-1.985,2.442-6.3206,2.442h0Z"/><path class="cls-10" d="M95.85642,24.017c-1.8021.1892-1.5681,2.4178-5.5084,2.8341h0a5.45219,5.45219,0,0,1-3.8908-.7925h0a3.076,3.076,0,0,0-2.086-.8338h0a1.07866,1.07866,0,0,0-1.0462,1.0938h0l9.4804,69.3013q4.6731-.63975,9.4373-0.9866l-5.138-69.7646a1.04869,1.04869,0,0,0-1.1071-.8592h0c-0.0463,0-.0938.0031-0.1412,0.0075h0Z"/><path class="cls-11" d="M216.7947,159.66948a18.64649,18.64649,0,0,1-8.745,15.18891,19.17139,19.17139,0,0,1-8.40092,2.82694,20.68716,20.68716,0,0,1-14.73436-3.52007,17.84619,17.84619,0,0,1-7.88215-13.30323,18.08931,18.08931,0,0,1,3.84986-13.78406,19.13153,19.13153,0,0,1,12.78334-7.181,20.52865,20.52865,0,0,1,18.68217,6.5487C215.15926,149.44314,216.798,153.87027,216.7947,159.66948Zm-5.85215-.28212a18.05584,18.05584,0,0,0-1.25616-6.611c-1.7961-4.73668-4.74257-8.36629-9.63422-10.25724-6.21244-2.40151-13.18967.33755-15.596,6.19584-2.66647,6.49162-2.595,12.931,1.0494,19.05336,3.077,5.1692,7.47992,8.27713,13.78676,8.02882a10.14043,10.14043,0,0,0,8.15074-4.15016C210.00972,168.21291,210.934,164.2699,210.94255,159.38736Z"/><path class="cls-11" d="M63.23015,162.38132c-1.76609-.10746-3.78914.148-5.81854,0.14986a1.31182,1.31182,0,0,0-1.3478.89037,51.57044,51.57044,0,0,0-2.7689,8.64962,1.94713,1.94713,0,0,0,1.16812,2.47009,23.41753,23.41753,0,0,0,2.27855.89584,0.95265,0.95265,0,0,1,.82962.83578c-0.03837.57671-.58326,0.58776-1.00869,0.70379a8.00924,8.00924,0,0,1-2.35973-.04911q-4.2715-.09262-8.53512.16366a7.87279,7.87279,0,0,1-1.10557-.02862,0.64642,0.64642,0,0,1-.621-0.41467,0.69224,0.69224,0,0,1,.26616-0.69825,2.81114,2.81114,0,0,1,1.53412-.76808,6.30786,6.30786,0,0,0,4.50214-3.96435c0.33451-.80265.7263-1.58167,1.054-2.38693,3.05034-7.49648,6.07735-15.00251,9.1478-22.49073a22.198,22.198,0,0,1,2.44905-5.29166c0.40571-.53418.68107-1.39327,1.43575-1.30716,0.73317,0.08365.78706,0.982,1.0029,1.57547q5.08253,13.9743,10.65141,27.76153a27.92822,27.92822,0,0,0,1.76911,3.708,4.779,4.779,0,0,0,3.20981,2.36435,6.24614,6.24614,0,0,1,1.64145.56238,0.69546,0.69546,0,0,1,.46821.66831,0.71906,0.71906,0,0,1-.5712.5853,2.51993,2.51993,0,0,1-1.01366.12861c-4.0837-.1041-8.16651-0.26756-12.253-0.16617a1.332,1.332,0,0,1-.31509-0.02169,0.92384,0.92384,0,0,1-.97586-0.63743,0.87375,0.87375,0,0,1,.80924-0.83439c0.4-.1305.817-0.20779,1.22277-0.322,1.5473-.43574,1.92154-1.04764,1.603-2.61762a42.94,42.94,0,0,0-1.74794-5.57956c-0.39121-1.11959-.88281-2.20663-1.22624-3.33954a1.52371,1.52371,0,0,0-1.62825-1.192C65.81669,162.37263,64.65648,162.38132,63.23015,162.38132Zm-1.05888-2.51955,0.00005-.06425c1.26357,0,2.5272.00745,3.79069-.00224,1.11313-.00853,1.18151-0.10307.831-1.12546-0.33285-.97091-0.67193-1.93991-1.02488-2.90366-0.97738-2.6689-1.91518-5.35312-3.03071-7.96914-0.095-.22288-0.138-0.59277-0.45288-0.56838a0.66854,0.66854,0,0,0-.35648.57117c-0.56312,1.4471-1.132,2.89223-1.67087,4.34842q-1.26027,3.40587-2.4783,6.82725c-0.28074.79347-.13465,0.91445,0.682,0.89428C59.697,159.83922,60.93442,159.86177,62.17127,159.86177Z"/><path class="cls-11" d="M151.303,156.48938c0,3.87566-.02356,7.75154.01254,11.62686a33.67327,33.67327,0,0,0,.29564,4.17388,2.8522,2.8522,0,0,0,2.15414,2.54626c0.55418,0.16893,1.11922.302,1.67778,0.45685a4.8604,4.8604,0,0,1,.828.25872c0.414,0.20064,1.01084.359,0.90338,0.94047a0.9949,0.9949,0,0,1-1.16577.59544c-1.266.04378-2.52658-.10161-3.789-0.13824a60.67838,60.67838,0,0,0-9.1583.26044,4.16419,4.16419,0,0,1-1.95725-.1337,0.69746,0.69746,0,0,1-.5651-0.58905,0.68922,0.68922,0,0,1,.39755-0.63946,4.37528,4.37528,0,0,1,.78776-0.35611c0.2986-.101.614-0.15122,0.91874-0.23554,2.37868-.65813,3.11863-1.56755,3.22355-4.03523,0.1175-2.76338.25278-5.52715,0.30038-8.29212,0.10708-6.21953.26673-12.43891,0.18957-18.66046-0.01353-1.09034-.02624-1.20751-1.13878-1.25442a51.50324,51.50324,0,0,0-8.28462-.1206,4.1367,4.1367,0,0,0-3.12235,1.90948c-0.52654.79265-.98228,1.62234-1.436,2.45612a1.0057,1.0057,0,0,1-.98.77775,1.02124,1.02124,0,0,1-.64623-1.14593,4.27642,4.27642,0,0,1,.14513-1.24757,30.08072,30.08072,0,0,0,.92441-6.08386,1.13363,1.13363,0,0,1,.72648-1.12561c0.48267-.189.61409,0.27975,0.861,0.52183a4.60131,4.60131,0,0,0,3.143,1.4191c6.61175,0.33017,13.2275.34647,19.84055,0.23a71.53758,71.53758,0,0,0,7.81532-.24724,6.32935,6.32935,0,0,0,2.52123-.87093,0.76371,0.76371,0,0,1,.94657-0.12261,0.81227,0.81227,0,0,1,.14932.95473,36.77059,36.77059,0,0,0-1.31692,6.418,2.33227,2.33227,0,0,1-.22286.75,0.89,0.89,0,0,1-.87752.56318,0.774,0.774,0,0,1-.6309-0.72533c-0.14031-.64249-0.21482-1.29936-0.35525-1.94183-0.33035-1.51144-.84869-2.07669-2.35019-2.25221a57.64968,57.64968,0,0,0-9.63143-.11893c-1.02572.05208-1.148,0.263-1.1495,1.29714q-0.009,6.09033-.00247,12.18069H151.303Z"/><path class="cls-11" d="M16.46077,147.90272a6.38147,6.38147,0,0,0,2.66537,5.22795,62.111,62.111,0,0,0,5.65138,3.91438,27.96732,27.96732,0,0,1,4.95341,3.9091C35.18281,166.71,32.292,173.9104,26.48249,176.44c-4.565,1.98773-9.20752,1.61744-13.81978.10311a2.87171,2.87171,0,0,1-1.87076-2.19675c-0.32713-1.38247-.53417-2.79368-0.78029-4.19475a3.61088,3.61088,0,0,1-.04029-0.78774,1.18991,1.18991,0,0,1,.70819-1.145,0.85928,0.85928,0,0,1,.95216.65709c0.4838,0.78313.91787,1.59882,1.33977,2.418a8.79984,8.79984,0,0,0,10.47485,3.95187,6.49027,6.49027,0,0,0,2.43514-10.36051,24.74749,24.74749,0,0,0-5.48632-4.36613,25.67033,25.67033,0,0,1-6.1979-4.98378c-5.02863-5.92615-1.74958-13.90437,5.67359-15.51839a22.15381,22.15381,0,0,1,9.5472.3662c1.69825,0.36849,1.92326.62462,2.10956,2.39712,0.10456,0.99485.25349,1.98505,0.38272,2.9773a2.61709,2.61709,0,0,1,.06719.54734c-0.04743.53837,0.25229,1.30523-.52309,1.46536a1.29586,1.29586,0,0,1-1.37214-1.0793,9.96594,9.96594,0,0,0-1.81557-3.03736,6.66093,6.66093,0,0,0-6.96449-2.05118,6.03893,6.03893,0,0,0-4.74744,5.04148A9.3529,9.3529,0,0,0,16.46077,147.90272Z"/><path class="cls-11" d="M112.856,174.6554c1.28948,0,2.57979.02963,3.86824-.00691,1.9538-.05539,3.0948-1.43566,4.248-2.73847,0.73216-.82716,1.35749-1.748,2.06811-2.59553,0.307-.36618.67131-0.93447,1.21461-0.63722a1.08132,1.08132,0,0,1,.20314,1.37633c-0.6358,2.03746-1.3356,4.05406-1.8385,6.133a1.70688,1.70688,0,0,1-1.95353,1.01554c-1.5531-.13958-3.10815-0.07916-4.66037-0.14991-5.61209-.25569-11.22659-0.14943-16.83973-0.09649-1.31309.01238-2.62842,0.17005-3.94669,0.13173-0.44038-.0128-0.9994.02518-1.07559-0.55738a0.9836,0.9836,0,0,1,.87469-0.97622c0.52151-.17926,1.07081-0.27614,1.60428-0.42247A3.7631,3.7631,0,0,0,99.8171,171.18c0.28975-8.722.21439-17.44719,0.18027-26.17182a2.20144,2.20144,0,0,0-1.577-2.22138c-0.56778-.20537-1.16425-0.33338-1.75119-0.483a2.41719,2.41719,0,0,1-.99654-0.45849c-0.53845-.4547-0.45267-0.95717.22073-1.17067a7.4153,7.4153,0,0,1,2.8284-.13867,46.65546,46.65546,0,0,0,6.2372.00568c1.44552-.08519,2.89893-0.04025,4.34884-0.04253a2.63919,2.63919,0,0,1,.70017.09312,0.62018,0.62018,0,0,1,.51121.538,0.64525,0.64525,0,0,1-.34457.5831,3.79758,3.79758,0,0,1-1.39463.53276,15.58626,15.58626,0,0,0-2.26563.69334,1.83522,1.83522,0,0,0-1.24079,1.67492c-0.04647.6831-.14186,1.36406-0.16208,2.04756-0.16593,5.61222-.265,11.22748-0.128,16.83953a79.53949,79.53949,0,0,0,.393,8.59913,2.81762,2.81762,0,0,0,2.51187,2.43415c1.65109,0.14885,3.30959.21542,4.96489,0.31743Z"/><path class="cls-11" d="M26.53369,198.44914c-1.13314,0-2.26651.01336-3.39934-.00562a0.68137,0.68137,0,0,0-.81012.79887c0.01451,1.08024.02656,2.16127,0.001,3.24107a1.46207,1.46207,0,0,0,1.12934,1.66319c0.21441,0.0591.53453,0.12708,0.49567,0.4184-0.04567.34244-.38743,0.317-0.639,0.29273a20.21891,20.21891,0,0,0-4.02266.02441c-0.29319.03011-.728,0.07648-0.78757-0.32183-0.053-.35438.34921-0.41444,0.62131-0.47449a1.33508,1.33508,0,0,0,1.11049-1.42214c0.11905-3.13251.23175-6.265,0.17435-9.401a1.19894,1.19894,0,0,0-1.05719-1.2676c-0.22153-.05-0.54131-0.07478-0.51659-0.37975,0.02894-.35695.37674-0.3154,0.62512-0.31749q1.9367-.01628,3.8736-0.00033c0.25184,0.00189.60465-.03133,0.63962,0.30573,0.03584,0.34536-.33171.3718-0.56956,0.42313a1.23478,1.23478,0,0,0-1.04018,1.36986c-0.00737,1.10672-.0038,2.21371-0.02863,3.32a0.62718,0.62718,0,0,0,.753.74466q3.39923-.03106,6.79878-0.01746a0.67661,0.67661,0,0,0,.8139-0.78815c-0.0202-1.05371-.0058-2.10807-0.01822-3.162a1.2856,1.2856,0,0,0-1.03993-1.45868c-0.23751-.05043-0.60016-0.10286-0.55652-0.443,0.04293-.33456.39576-0.29248,0.64692-0.29466q2.01577-.01761,4.03172-0.00751c0.22279,0.001.5426-.04807,0.56948,0.27135,0.02516,0.29887-.28373.35343-0.50653,0.39791a1.31024,1.31024,0,0,0-1.123,1.4081c-0.04286,1.5533-.08182,3.107-0.09339,4.66074-0.01138,1.52823.03823,3.05715,0.01128,4.5849a1.22973,1.22973,0,0,0,1.00746,1.45051c0.262,0.05952.65814,0.13463,0.57037,0.51215-0.07309.31436-.44366,0.21243-0.69085,0.209a30.90392,30.90392,0,0,0-3.78823.11936c-0.286.03127-.725,0.115-0.78258-0.306-0.04821-.35268.36393-0.40026,0.62288-0.49a1.26733,1.26733,0,0,0,.97607-1.19778c0.06355-1.20929.18441-2.41449,0.16848-3.62944a0.70516,0.70516,0,0,0-.85068-0.83c-1.10621.02544-2.21342,0.00724-3.32022,0.00724v-0.00848Z"/><path class="cls-11" d="M112.836,205.10252a2.23735,2.23735,0,0,1-2.37848-1.49712,9.42,9.42,0,0,0-.48152-0.81615c-0.19577-.33479-0.40535-0.35478-0.683-0.07463-0.46339.46755-.92076,0.94665-1.42636,1.36579a4.01662,4.01662,0,0,1-6.24067-.95627,3.31355,3.31355,0,0,1,.519-3.94631,7.70682,7.70682,0,0,1,1.70351-1.40181c0.526-.31614.54626-0.552,0.10918-1.00577a2.52268,2.52268,0,0,1-.23745-3.68035,3.01045,3.01045,0,0,1,5.10517.65132,1.89843,1.89843,0,0,1-.91742,2.55152c-0.96642.66416-.94354,0.6378-0.03587,1.42548a26.57476,26.57476,0,0,1,2.15567,2.08727c0.42786,0.46591.7173,0.41685,1.059-.04087,0.58262-.78041,1.17225-1.55556,1.7596-2.33241,0.36751-.48607.27618-0.808-0.32588-0.98257-0.233-.06756-0.60956-0.08115-0.53589-0.43621a0.54949,0.54949,0,0,1,.67082-0.27452,30.32368,30.32368,0,0,0,3.23021-.17766c0.21741-.01678.535-0.06908,0.57078,0.25717,0.02869,0.26115-.25846.31365-0.44771,0.36743a5.519,5.519,0,0,0-2.52,1.8372c-0.75963.83931-1.49421,1.70129-2.2392,2.55383a0.43379,0.43379,0,0,0-.17053.55384,5.76053,5.76053,0,0,0,2.056,2.338,2.96837,2.96837,0,0,0,2.38124.10331c0.22495-.08461.537-0.34789,0.7068-0.06395,0.17881,0.299-.161.52107-0.36913,0.70331A4.25618,4.25618,0,0,1,112.836,205.10252ZM106.068,203.65a4.23385,4.23385,0,0,0,2.69-1.38813,0.70669,0.70669,0,0,0,.03329-1.14243,22.74214,22.74214,0,0,0-2.56673-2.55731c-1.11977-.97228-1.27641-0.96714-2.29431.13152-0.05362.05786-.11008,0.1137-0.15842,0.17577a2.81458,2.81458,0,0,0-.5,3.0934A2.96192,2.96192,0,0,0,106.068,203.65Zm1.35612-8.866a2.04987,2.04987,0,0,0-1.077-1.98095,1.23906,1.23906,0,0,0-1.4708.44362,1.93111,1.93111,0,0,0,.14582,2.2027c0.37333,0.49144.79231,1.16412,1.47323,0.968A1.5967,1.5967,0,0,0,107.42408,194.78405Z"/><path class="cls-11" d="M178.55584,194.2377c-0.06926.95221-.1677,1.7839-0.18241,2.61708-0.03026,1.71261-.00865,3.42609-0.02229,5.13909-0.00817,1.02547.17428,1.90507,1.38211,2.149a0.37413,0.37413,0,1,1-.06118.73079c-1.34118-.02489-2.682-0.07018-4.02279-0.1131a0.3002,0.3002,0,0,1-.312-0.197,0.28428,0.28428,0,0,1,.22019-0.3645c1.7344-.38458,1.59382-1.76315,1.65326-3.05569,0.10887-2.36682.32537-4.72872,0.31867-7.10082-0.00359-1.27513-.23209-1.58451-1.46842-1.97357-0.1508-.04743-0.30669-0.08011-0.45446-0.13513a0.3588,0.3588,0,0,1-.33288-0.37342,0.33536,0.33536,0,0,1,.35965-0.24976,16.31881,16.31881,0,0,1,2.91733.0584,1.24207,1.24207,0,0,1,.73656.56475c2.50078,3.17118,5.40227,5.97923,8.12082,8.95307a0.622,0.622,0,0,0,.4348.30594,0.29067,0.29067,0,0,0,.099-0.10974c0.09612-2.555.06006-5.11029-.00249-7.66513a1.34919,1.34919,0,0,0-.95977-1.23446c-0.21839-.09147-0.44231-0.17154-0.6545-0.27554a0.33257,0.33257,0,0,1-.23085-0.37087,0.29662,0.29662,0,0,1,.30235-0.2125q2.09381-.02,4.18774-0.02258a0.28146,0.28146,0,0,1,.32008.27612,0.33941,0.33941,0,0,1-.28423.33771c-1.58292.27888-1.47863,1.46828-1.53943,2.663-0.14467,2.84415-.16455,5.68762-0.1277,8.53295,0.00579,0.44664.09359,0.8931,0.08633,1.33871-0.00929.57124-.38841,0.77069-0.83485,0.41962a6.55725,6.55725,0,0,1-.98466-1.01879c-2.65486-3.24308-5.5683-6.25643-8.338-9.39731A2.22051,2.22051,0,0,0,178.55584,194.2377Z"/><path class="cls-11" d="M201.02358,205.10348a7.03392,7.03392,0,0,1-7.44571-6.80156,6.53292,6.53292,0,0,1,3.20637-6.135,7.78033,7.78033,0,0,1,10.6898,2.35134A7.09741,7.09741,0,0,1,201.02358,205.10348Zm0.53588-.82258a3.74541,3.74541,0,0,0,3.862-2.44738,7.60473,7.60473,0,0,0-1.16584-8.33686c-2.4411-2.61309-6.62168-2.23459-7.94718,1.11031a7.54777,7.54777,0,0,0,1.75562,8.28819A4.68521,4.68521,0,0,0,201.55946,204.2809Z"/><path class="cls-11" d="M44.79532,205.10352a7.07627,7.07627,0,1,1-.06593-14.13679A7.07813,7.07813,0,1,1,44.79532,205.10352Zm0.66956-.82237a3.721,3.721,0,0,0,3.51322-1.946,7.58742,7.58742,0,0,0-1.49676-9.36532,4.58374,4.58374,0,0,0-7.5155,2.08532,8.02193,8.02193,0,0,0-.18382,4.28578A5.98284,5.98284,0,0,0,45.46488,204.28115Z"/><path class="cls-11" d="M74.65912,191.29342c1.18584,0,2.3735.04007,3.55686-.01414,0.78655-.036,1.20935.1564,1.12619,1.03428a5.70831,5.70831,0,0,1,.026,1.33123,0.43086,0.43086,0,0,1-.27888.35283,0.29509,0.29509,0,0,1-.36567-0.22546c-0.38518-1.65722-1.67659-1.66134-2.981-1.65651-1.97288.00732-1.80329-.18689-1.84156,1.83815-0.01741.92091-.06987,1.8412-0.11059,2.76158a0.64035,0.64035,0,0,0,.75258.76694c0.55308-.01335,1.10741-0.02387,1.65986-0.002a1.39553,1.39553,0,0,0,1.569-.91442c0.07657-.206.191-0.49505,0.50117-0.36848a0.45943,0.45943,0,0,1,.18275.55836,8.303,8.303,0,0,0,.00161,2.44041,0.50477,0.50477,0,0,1-.27545.66047c-0.3053.07385-.39383-0.23888-0.44913-0.45073a1.27018,1.27018,0,0,0-1.44058-.95565c-0.606-.00174-1.21207-0.0079-1.81811-0.01155a0.55838,0.55838,0,0,0-.68816.57155,25.63317,25.63317,0,0,0,.09965,4.10116,0.90583,0.90583,0,0,0,.94279.85472,16.97,16.97,0,0,0,2.75519.03845,2.86533,2.86533,0,0,0,2.47308-1.56693c0.13161-.23458.25462-0.63488,0.601-0.498,0.34942,0.13807.15961,0.5038,0.09654,0.773-0.51652,2.2049-.55417,2.27543-2.76126,2.18947a55.03417,55.03417,0,0,0-7.49719.00112,1.94932,1.94932,0,0,1-.54826-0.0468,0.32367,0.32367,0,0,1-.32816-0.28423,0.31364,0.31364,0,0,1,.30239-0.31171c1.60362-.182,1.74351-1.25475,1.81432-2.60105,0.14139-2.68814.03927-5.37355,0.10881-8.05864a1.36645,1.36645,0,0,0-1.15485-1.60695c-0.24087-.05089-0.6038-0.09232-0.55734-0.43574,0.04618-.34138.40345-0.27494,0.65273-0.27668,1.29115-.009,2.5824-0.00419,3.87362-0.00419v0.01609Z"/><path class="cls-11" d="M142.68716,204.7888a14.223,14.223,0,0,0-2.37119.10506,0.49324,0.49324,0,0,1-.65225-0.28386,0.44321,0.44321,0,0,1,.4386-0.47269,2.94758,2.94758,0,0,0,2.08368-2.17053q1.91442-4.72374,3.84126-9.4424a5.99788,5.99788,0,0,1,.591-1.11151c0.36586-.53409.62036-0.5021,0.85781,0.10831,0.487,1.25182.93554,2.51853,1.41888,3.77178q1.25111,3.244,2.5261,6.47874c0.42847,1.09295.86189,2.1825,2.22174,2.43622a0.32884,0.32884,0,0,1,.32243.37705,0.42255,0.42255,0,0,1-.42592.292,6.76867,6.76867,0,0,1-1.33728-.03332c-1.05156-.04869-2.10549-0.045-3.15829-0.06928-0.20609-.00473-0.473.00942-0.51676-0.25043a0.39384,0.39384,0,0,1,.41277-0.39333,0.92194,0.92194,0,0,0,.71123-1.421c-0.32455-.89053-0.63005-1.788-0.94-2.68387a0.80925,0.80925,0,0,0-.82036-0.61369,20.91563,20.91563,0,0,0-3.15551.09684,0.83217,0.83217,0,0,0-.75915.5832c-0.28582.87575-.579,1.74938-0.84777,2.63037a0.92984,0.92984,0,0,0,.69015,1.28384,2.10182,2.10182,0,0,1,.22123.08484c0.2076,0.09531.53578,0.13457,0.48442,0.42759-0.0601.343-.41064,0.25683-0.65808,0.26561C143.41863,204.80021,142.97038,204.7888,142.68716,204.7888Zm3.65543-11.01534c-0.569,1.52585-1.06218,2.83669-1.54529,4.15126-0.13.35374,0.06519,0.48345,0.3905,0.48323q1.17915-.00075,2.3583-0.00807c0.31588-.00182.52987-0.1101,0.39866-0.47487A41.27632,41.27632,0,0,0,146.34258,193.77345Z"/><path class="cls-11" d="M132.039,205.0789a7.77535,7.77535,0,0,1-6.66924-2.94869,6.79111,6.79111,0,0,1,3.20384-10.52367,11.62177,11.62177,0,0,1,7.67657.04253,0.73,0.73,0,0,1,.54238.61464,10.37364,10.37364,0,0,1,.10189,2.1273,0.3607,0.3607,0,0,1-.22789.38126,0.34218,0.34218,0,0,1-.40654-0.292,3.3647,3.3647,0,0,0-2.22343-2.37976,6.23237,6.23237,0,0,0-3.65769-.15711,5.5559,5.5559,0,0,0-4.08892,5.4712c-0.048,3.61936,1.8458,6.115,5.1741,6.7257a4.71211,4.71211,0,0,0,5.07008-2.11666c0.20236-.29263.332-0.90837,0.787-0.68948,0.415,0.19966.11479,0.7204,0.00312,1.07854-0.61823,1.98265-1.3726,2.47913-4.02079,2.6621C132.88394,205.10381,132.46061,205.0789,132.039,205.0789Z"/><path class="cls-11" d="M61.73726,197.87939c0,1.47572-.0144,2.95163.00438,4.42711,0.01611,1.26528.15648,1.4274,1.3344,1.7904,0.2675,0.08243.674,0.11012,0.63165,0.467-0.04891.41251-.48046,0.36689-0.7746,0.32877a19.2095,19.2095,0,0,0-4.41367.01841c-0.28973.02918-.72638,0.10118-0.77257-0.32249-0.03878-.35565.36925-0.40708,0.63675-0.464a1.43288,1.43288,0,0,0,1.22694-1.52174c0.03358-3.21343.2635-6.42272,0.19323-9.63833a0.62551,0.62551,0,0,0-.73719-0.69858c-0.76415.0006-1.53029,0.01825-2.292-.02909a1.908,1.908,0,0,0-1.91224,1.249c-0.12468.23956-.22592,0.64421-0.5796,0.53366-0.39725-.1242-0.24639-0.51948-0.1988-0.82206,0.11045-.70223.23306-1.4025,0.34512-2.10447,0.08225-.51522.30844-0.66476,0.72771-0.28473a2.0788,2.0788,0,0,0,1.473.46241q4.5853,0.01674,9.17067.01416a3.30811,3.30811,0,0,0,1.37944-.30022c0.426-.19238.619-0.03575,0.54056,0.40758-0.133.75161-.29515,1.4981-0.44834,2.24606a0.413,0.413,0,0,1-.38791.4245,0.47462,0.47462,0,0,1-.3509-0.46815c-0.397-1.26034-.46174-1.3124-1.81391-1.32822-0.73776-.00863-1.47628.01814-2.21341-0.00477a0.66456,0.66456,0,0,0-.79658.7953c0.01893,1.6073.00659,3.215,0.00659,4.82251h0.02128Z"/><path class="cls-11" d="M159.66362,205.11158c-0.3414-.02377-0.68621-0.02474-1.02365-0.07507-2.04253-.30465-2.43661-0.73838-2.57685-2.79295a0.51018,0.51018,0,0,1,.29408-0.64969,0.47386,0.47386,0,0,1,.50386.41,3.59232,3.59232,0,0,0,1.82279,1.99018,2.86861,2.86861,0,0,0,2.86792-.17478,2.25363,2.25363,0,0,0,.9306-2.29228,3.01429,3.01429,0,0,0-1.36388-1.95372c-0.92273-.74576-1.998-1.2749-2.8988-2.05695a3.63014,3.63014,0,0,1-.86685-4.8811,4.13137,4.13137,0,0,1,3.27037-1.659,9.34813,9.34813,0,0,1,2.58734.24485,0.97221,0.97221,0,0,1,.87944.94982c0.04213,0.419.11462,0.83512,0.14953,1.25452a0.41538,0.41538,0,0,1-.25362.5175,0.44931,0.44931,0,0,1-.48621-0.32224c-0.1424-.25219-0.25612-0.522-0.413-0.76434a2.38765,2.38765,0,0,0-2.42261-1.1681,2.18305,2.18305,0,0,0-2.00512,1.553,2.41336,2.41336,0,0,0,.76312,2.64837,16.58488,16.58488,0,0,0,1.93312,1.36944,11.07774,11.07774,0,0,1,2.152,1.72613,3.4412,3.4412,0,0,1-.81175,5.36347A5.727,5.727,0,0,1,159.66362,205.11158Z"/><path class="cls-11" d="M86.1391,191.28233c0.55372,0,1.10912-.026,1.66054.00968,0.33312,0.02155.86912-.21,0.93737,0.279,0.057,0.40813-.491.36672-0.78659,0.49673a2.65267,2.65267,0,0,1-.30424.08542,0.9363,0.9363,0,0,0-.74337.984q0.00962,4.746.00956,9.492a1.14761,1.14761,0,0,0,1.15128,1.25166,17.08581,17.08581,0,0,0,3.07963.01087,1.53983,1.53983,0,0,0,1.02767-.54036c0.40623-.44917.80336-0.9066,1.21118-1.35431a0.36831,0.36831,0,0,1,.47714-0.16356,0.34662,0.34662,0,0,1,.12276.4239,21.19354,21.19354,0,0,1-.71907,2.2556,1.03047,1.03047,0,0,1-1.19807.38972c-2.18449-.19659-4.37312-0.11661-6.56011-0.11951-0.65671-.00085-1.31308.0906-1.97052,0.11742-0.25432.01041-.59933,0.04135-0.66335-0.279-0.069-.34536.28725-0.38895,0.52336-0.47358,1.24392-.446,1.37569-0.65632,1.43191-1.9273,0.1247-2.81881.13347-5.63839,0.13634-8.45892,0.00089-.87427-0.1369-1.58059-1.17323-1.73826a0.41525,0.41525,0,0,1-.45224-0.44474,0.48775,0.48775,0,0,1,.58723-0.28039c0.73816-.00991,1.47652-0.00365,2.21481-0.00365v-0.0124Z"/><path class="cls-11" d="M169.13227,197.80219c0-1.44984-.01389-2.89985.00549-4.34941a1.24772,1.24772,0,0,0-1.12685-1.44684c-0.26116-.04467-0.67464-0.04131-0.61822-0.446,0.045-.32307.40892-0.27177,0.66258-0.273q2.13512-.01069,4.27029.00185c0.24566,0.0018.59884-.0648,0.6359,0.29458,0.03082,0.29895-.29033.34843-0.51068,0.39061a1.48283,1.48283,0,0,0-1.25006,1.64237,77.97168,77.97168,0,0,0-.01373,8.92383,1.45253,1.45253,0,0,0,1.3098,1.58543c0.263,0.04548.67372,0.07594,0.63637,0.44911-0.03613.36139-.43315,0.33738-0.71009,0.33215-1.52684-.0287-3.04952-0.19462-4.57966-0.13475a0.40281,0.40281,0,0,1-.50618-0.26679,0.37606,0.37606,0,0,1,.40815-0.39225c1.16569-.16491,1.37658-0.99179,1.38036-1.96135,0.00564-1.4498.00147-2.89964,0.00147-4.34945h0.00506Z"/></svg>